<?xml version="1.0" standalone="no"?>
<!DOCTYPE svg PUBLIC "-//W3C//DTD SVG 20010904//EN"
 "http://www.w3.org/TR/2001/REC-SVG-20010904/DTD/svg10.dtd">
<svg version="1.0" xmlns="http://www.w3.org/2000/svg"
 width="785.000000pt" height="785.000000pt" viewBox="0 0 785.000000 785.000000"
 preserveAspectRatio="xMidYMid meet">
<metadata>
Created by potrace 1.11, written by Peter Selinger 2001-2013
</metadata>
<g transform="translate(0.000000,785.000000) scale(0.100000,-0.100000)"
fill="#000000" stroke="none">
<path d="M3680 7829 c-569 -36 -1153 -207 -1651 -484 -155 -86 -397 -249 -544
-365 -167 -133 -482 -448 -615 -615 -182 -229 -359 -513 -477 -763 -506 -1073
-506 -2291 0 -3364 118 -250 295 -534 477 -763 133 -167 448 -482 615 -615
229 -182 513 -359 763 -477 1073 -506 2291 -506 3364 0 250 118 534 295 763
477 167 133 482 448 615 615 241 304 439 645 580 999 402 1011 365 2137 -103
3128 -118 250 -295 534 -477 763 -133 167 -448 482 -615 615 -229 182 -513
359 -763 477 -609 287 -1268 414 -1932 372z m715 -513 c261 -38 428 -77 665
-156 291 -97 539 -219 805 -396 199 -132 336 -245 520 -429 342 -341 583 -705
763 -1151 166 -410 243 -816 243 -1275 0 -331 -36 -602 -120 -909 -40 -143
-59 -199 -126 -372 -236 -599 -694 -1172 -1230 -1537 -359 -245 -725 -411
-1130 -510 -282 -70 -489 -95 -795 -95 -304 -1 -406 7 -650 51 -727 130 -1413
510 -1916 1060 -367 402 -628 875 -778 1413 -130 463 -154 1037 -65 1515 106
569 339 1079 698 1530 119 149 380 412 526 529 519 415 1117 661 1805 741 155
19 632 13 785 -9z"/>
<path d="M3625 6874 c-530 -61 -1043 -266 -1467 -587 -266 -200 -517 -469
-699 -747 -74 -113 -119 -194 -119 -214 0 -9 204 -836 454 -1839 250 -1002
467 -1875 483 -1940 l28 -118 48 -31 c26 -17 49 -29 50 -27 2 2 29 108 60 234
128 519 1308 5251 1313 5268 6 20 14 20 -151 1z"/>
<path d="M4193 6864 c7 -21 966 -3869 1210 -4851 84 -337 155 -613 158 -613 3
0 33 17 66 39 l60 39 471 1887 472 1888 -57 101 c-366 657 -969 1155 -1678
1388 -204 67 -448 119 -626 134 -77 7 -81 6 -76 -12z"/>
<path d="M3981 6508 c-1 -4 -14 -60 -31 -125 -16 -65 -153 -615 -305 -1223
-152 -608 -278 -1113 -281 -1122 -5 -17 29 -18 615 -18 499 0 621 3 621 13 0
13 -47 203 -406 1642 -200 801 -212 847 -213 833z"/>
<path d="M1135 4879 c-44 -121 -101 -356 -132 -544 -23 -139 -26 -668 -5 -805
60 -387 148 -665 307 -980 142 -279 323 -527 549 -749 81 -80 84 -83 77 -50
-43 180 -783 3134 -786 3138 -3 2 -7 -2 -10 -10z"/>
<path d="M6660 4198 c-79 -321 -246 -992 -371 -1493 l-227 -910 78 82 c436
458 716 1070 790 1728 13 116 13 494 0 610 -23 201 -99 565 -119 565 -4 0 -71
-262 -151 -582z"/>
<path d="M3290 3737 c0 -1 -139 -562 -310 -1245 -170 -684 -310 -1249 -310
-1256 0 -32 296 -146 546 -211 535 -139 1119 -125 1635 41 115 37 377 140 416
163 l31 20 -78 313 c-44 172 -181 722 -306 1222 -124 501 -230 920 -235 933
l-9 23 -280 0 -280 0 0 -750 c0 -811 1 -788 -54 -839 -36 -34 -118 -40 -163
-12 -72 46 -68 -11 -71 838 l-2 763 -265 0 c-146 0 -265 -1 -265 -3z"/>
</g>
</svg>
